<?xml version="1.0" encoding="utf-8"?>
<!-- Generator: Adobe Illustrator 18.1.0, SVG Export Plug-In . SVG Version: 6.00 Build 0)  -->
<svg version="1.1" xmlns="http://www.w3.org/2000/svg" xmlns:xlink="http://www.w3.org/1999/xlink" x="0px" y="0px"
	 viewBox="0 0 400 250" enable-background="new 0 0 400 250" xml:space="preserve">
<g id="RVB">
	<g>
		<path fill="#403E46" d="M46.7,208.1c4.1,0,7.5-1.6,10.1-4.9l5.4,5.5c-4.3,4.8-9.3,7.2-15.1,7.2s-10.6-1.8-14.3-5.5
			c-3.7-3.7-5.6-8.3-5.6-13.8c0-5.6,1.9-10.2,5.7-14c3.8-3.7,8.5-5.6,14-5.6c6.2,0,11.3,2.3,15.5,7l-5.2,5.9c-2.7-3.3-6-4.9-9.9-4.9
			c-3.2,0-5.9,1-8.1,3.1c-2.2,2.1-3.4,4.8-3.4,8.3s1.1,6.3,3.2,8.4C41.1,207.1,43.7,208.1,46.7,208.1z"/>
		<path fill="#403E46" d="M68.8,215.5V178h8.4v30.1h16v7.5H68.8z"/>
		<path fill="#403E46" d="M126.5,178v7.5h-18.7v7.7h16.8v7.2h-16.8v7.8h19.3v7.4H99.4V178H126.5z"/>
		<path fill="#403E46" d="M148.4,201.9L158,178h9.1l-15.1,37.6h-7.1L129.7,178h9.1L148.4,201.9z"/>
		<path fill="#403E46" d="M198.6,178v7.5h-18.7v7.7h16.8v7.2h-16.8v7.8h19.3v7.4h-27.7V178H198.6z"/>
		<path fill="#403E46" d="M237.2,190.4c0,6-2.4,9.9-7.2,11.7l9.5,13.4h-10.3l-8.3-12h-5.8v12h-8.4V178h14.2c5.8,0,10,1,12.5,3
			C235.9,182.9,237.2,186.1,237.2,190.4z M227.1,194.9c1-0.9,1.6-2.4,1.6-4.4c0-2-0.5-3.4-1.6-4.2c-1.1-0.8-3-1.1-5.6-1.1h-6.3v11.1
			h6.1C224.1,196.3,226,195.8,227.1,194.9z"/>
		<path fill="#403E46" d="M286.8,215.5l-3.5-8.1h-15.8l-3.5,8.1h-8.9l16.2-37.6h8.1l16.2,37.6H286.8z M275.4,189.1l-4.7,10.9h9.4
			L275.4,189.1z"/>
		<path fill="#403E46" d="M324.4,196.4h8.4v13.3c-3.7,4.2-8.9,6.2-15.5,6.2c-5.5,0-10.2-1.8-13.9-5.5c-3.7-3.7-5.6-8.3-5.6-13.8
			c0-5.6,1.9-10.2,5.7-14c3.8-3.7,8.4-5.6,13.8-5.6s10.1,1.8,14.1,5.3l-4.4,6.3c-1.7-1.5-3.2-2.5-4.7-3c-1.4-0.6-2.9-0.8-4.6-0.8
			c-3.2,0-5.9,1.1-8.1,3.3c-2.2,2.2-3.3,5-3.3,8.6c0,3.5,1,6.4,3.1,8.5c2.1,2.1,4.6,3.2,7.5,3.2c2.9,0,5.3-0.6,7.3-1.7V196.4z"/>
		<path fill="#403E46" d="M367.5,178v7.5h-18.7v7.7h16.8v7.2h-16.8v7.8h19.3v7.4h-27.7V178H367.5z"/>
	</g>
	<path d="M112.7,72.5"/>
	<g>
		<path fill="#DDDEDE" d="M218.5,135.8c17.1-7.9,28.9-25.2,28.9-45.3c0-8.9-2.3-17.2-6.4-24.4l-1.5,3.4c3.2,6.3,5,13.5,5,21
			c0,19-11.4,35.5-27.7,42.9L218.5,135.8z M197.5,43.5c12.4,0,23.6,4.8,32,12.6l0.9-3.1c-8.8-7.8-20.3-12.5-33-12.5l0,0
			c-27.5,0-49.6,22.3-49.6,49.9s23.1,49.9,50.1,49.9v-2.9c-26,0-47.2-21.1-47.2-47S171.6,43.5,197.5,43.5"/>
		<g>
			<polyline fill="#0389C0" points="173.1,84.6 164.1,75.6 163.5,82.3 191.6,133 187.1,143.6 197.5,143.5 216.6,149.1 			"/>
			<polygon fill="#007EB1" points="256.8,38.5 256,34 243.8,42.8 213.1,119.8 209.3,114.6 240.3,41.6 239.9,36.9 230.9,41.5 216,76 
				209.7,54.8 196.4,46 208.8,92.6 205.5,100.3 194.6,57.9 196.4,46 191.8,47.2 187,56.5 197.6,98.6 185,81.3 164.1,75.6 
				177.3,82.5 220.6,147.5 230.7,144.1 235.6,142 228.2,117 			"/>
		</g>
	</g>
	<g>
		<path fill="#DDDEDE" d="M77.1,43.5c25.9,0,47,21.1,47,47s-21.1,47-47,47s-47-21.1-47-47S51.2,43.5,77.1,43.5 M77.1,40.6
			c-27.5,0-49.9,22.3-49.9,49.9s22.3,49.9,49.9,49.9s49.9-22.3,49.9-49.9S104.6,40.6,77.1,40.6L77.1,40.6z"/>
		<path fill="#667D18" d="M101.6,93c-0.5-0.8-1.7-2.4-3.7-4.3l0,0.1c-1.1-0.6-2.2-1.3-3.3-1.9c-6.9-4-12.8-5.7-18-5.7
			c-19-0.2-26.3,20.5-26.3,20.6l-0.2,0.6l0,0l0.7,0.3c0.1,0,24.6,11.8,41.1-4.9c1.7-1.8,3.4-3.9,4.9-6.3l0.1-0.1
			c2.1,1.8,3.3,3.5,3.8,4.4l0,0c-0.2,0.4-0.3,0.8-0.5,1.3l-1.3,3.5c-3.6,9.8-6.7,22.1-6.7,31.4c0,9.3,0.9,16.5,0.9,16.4h0h0
			c-0.1,0,9.9,0,9.8,0c-2.9-4.4-5.9-13.3-5.9-22.1c0-8.8,2.5-18.2,5.5-27.1c1.6,7,8.2,15.7,14.8,23c7.6,8.4,15.2,15,15.3,15l0.6,0.5
			l0.3-0.7c0,0,4.4-13.1,4.6-25.5c0.1-7-1.2-13.9-5.5-18.1c-5.6-5.4-11.1-6.8-15.2-6.8c-3.3,0-5.7,0.7-6.8,0.9l0.1,0.5l-0.1-0.5
			c-1.6,0.4-3,0.9-4.1,1.6c3-7.4,6-13.4,7.6-16.5v0c0.1-0.2,0.2-0.4,0.3-0.5c1-1.6,2.4-3.4,4.1-4.7c2.4-1.9,11.6,1.2,14.1-5.8
			c1.6-4.6-0.5-16.3-2.2-23.8l0,0c-6.9,3.2-18.1,9.1-20.8,13.3c-3.9,6.2,4.2,11.5,4.2,14.6c0,2.1-0.6,4.4-1.2,6.1
			c-0.1,0.2-0.1,0.4-0.2,0.6c-0.4,0.6-2.3,3.8-4.8,8.7c-0.4-0.6-1-1.6-1.5-2.9c-1-2.1-1.9-5.2-1.9-8.6c0-0.2,0-0.3,0-0.5l0-0.1
			l0-0.1c-2.9-9.1-11.2-12.2-20.4-12.3c-8.1-0.1-17,2-23.8,4.3c-3.4,1.2-6.4,2.4-8.5,3.4c-1,0.5-1.9,1-2.5,1.3
			c-0.6,0.4-1,0.6-1.1,1.3c0,0.3,0.2,0.6,0.4,0.6c0.2,0.1,0.4,0.1,0.6,0.1c0.1,0,0.2,0,0.4,0c0.1,0,0.3,0,0.4,0
			c9.4,0.1,13.9,2.8,18.8,5.5c4.9,2.7,10.2,5.5,20.6,5.6c3.9,0,8.5-0.3,14.1-1c1,0.9,1.7,2.4,2.1,3.7c0.5,1.3,0.6,2.4,0.6,2.4
			l0.1,0.4C104.3,86.8,102.9,89.8,101.6,93L101.6,93z"/>
	</g>
	<path fill="#DDDEDE" d="M318.3,43.5c25.9,0,47,21.1,47,47s-21.1,47-47,47c-25.9,0-47-21.1-47-47S292.4,43.5,318.3,43.5 M318.3,40.6
		c-27.5,0-49.9,22.3-49.9,49.9s22.3,49.9,49.9,49.9s49.9-22.3,49.9-49.9S345.8,40.6,318.3,40.6L318.3,40.6z"/>
	<g>
		<g>
			<path fill="#C74917" d="M370.4,90.3c2.4-5.2,2.8-8.8,2.1-13c-1.3,3.3-5.2,9.7-6.5,11L370.4,90.3z"/>
			<path fill="#C74917" d="M336.1,49.3c2.7-5.9,5.5-9,9.6-11.5c-1.9,3.5-4.5,11.6-4.7,13.8L336.1,49.3z"/>
			<path fill="#C74917" d="M362.6,59.8c2.7-5.9,3.2-10.1,2.4-14.8c-1.4,3.7-5.9,11-7.4,12.5L362.6,59.8z"/>
			<path fill="#C74917" d="M317.6,63.3c-3.6,2.2-6.1,4.9-8.5,10.1l4.4,2C313.7,73.6,316,66.4,317.6,63.3z"/>
		</g>
		<g>
			<path fill-rule="evenodd" clip-rule="evenodd" fill="#C74917" d="M341.6,115.1c-3-6.1-3.8-11.7-10-13.6c-7.2-1-11.3,5.5-16.6,9.5
				c-5.5,4.1-10.9,2.7-13.6,8.3c-2.9,7-1.1,13.7,4.3,19.7c7.1,7.9,20.3,10.8,26.5,7.7c9.3-2.5,13.6-11,13.7-20.2
				C346,122.5,343.7,119.4,341.6,115.1z"/>
			<path fill="#C74917" d="M317,97.2c-2.9,9.1-9.5,15.1-14.6,13.7c-5-1.4-7.1-9.4-4.7-18.2c2.5-9.2,9-16,14.5-15
				C317.9,78.8,320,87.7,317,97.2z"/>
			<path fill="#C74917" d="M339.5,74.3c-3,9.5-9.6,15.8-14.7,14.4c-5-1.4-7-9.6-4.5-18.8c2.6-9.5,9.1-16.7,14.6-15.7
				C340.5,55.3,342.6,64.5,339.5,74.3z"/>
			<path fill="#C74917" d="M359.5,81.2c-4.5,8.6-12,13.7-16.5,11c-4.6-2.8-3.9-12.3,1.2-20.9c4.8-8.1,11.9-12,15.8-9.3
				C363.9,64.7,363.7,73.1,359.5,81.2z"/>
			<path fill="#C74917" d="M368.2,108.4c-4.1,9.2-12.8,15.1-18,11.8c-4.6-2.9-3.6-11.7,1-18.7c4.1-6.1,10.1-9.7,14.3-8.6
				C370.1,94.1,371.7,100.6,368.2,108.4z"/>
		</g>
	</g>
</g>
<g id="Black" display="none">
	<g display="inline">
		<path fill="#1D1D1B" d="M46.7,208.1c4.1,0,7.5-1.6,10.1-4.9l5.4,5.5c-4.3,4.8-9.3,7.2-15.1,7.2s-10.6-1.8-14.3-5.5
			c-3.7-3.7-5.6-8.3-5.6-13.8c0-5.6,1.9-10.2,5.7-14c3.8-3.7,8.5-5.6,14-5.6c6.2,0,11.3,2.3,15.5,7l-5.2,5.9c-2.7-3.3-6-4.9-9.9-4.9
			c-3.2,0-5.9,1-8.1,3.1c-2.2,2.1-3.4,4.8-3.4,8.3s1.1,6.3,3.2,8.4C41.1,207.1,43.7,208.1,46.7,208.1z"/>
		<path fill="#1D1D1B" d="M68.8,215.5V178h8.4v30.1h16v7.5H68.8z"/>
		<path fill="#1D1D1B" d="M126.5,178v7.5h-18.7v7.7h16.8v7.2h-16.8v7.8h19.3v7.4H99.4V178H126.5z"/>
		<path fill="#1D1D1B" d="M148.4,201.9L158,178h9.1l-15.1,37.6h-7.1L129.7,178h9.1L148.4,201.9z"/>
		<path fill="#1D1D1B" d="M198.6,178v7.5h-18.7v7.7h16.8v7.2h-16.8v7.8h19.3v7.4h-27.7V178H198.6z"/>
		<path fill="#1D1D1B" d="M237.2,190.4c0,6-2.4,9.9-7.2,11.7l9.5,13.4h-10.3l-8.3-12h-5.8v12h-8.4V178h14.2c5.8,0,10,1,12.5,3
			C235.9,182.9,237.2,186.1,237.2,190.4z M227.1,194.9c1-0.9,1.6-2.4,1.6-4.4c0-2-0.5-3.4-1.6-4.2c-1.1-0.8-3-1.1-5.6-1.1h-6.3v11.1
			h6.1C224.1,196.3,226,195.8,227.1,194.9z"/>
		<path fill="#1D1D1B" d="M286.8,215.5l-3.5-8.1h-15.8l-3.5,8.1h-8.9l16.2-37.6h8.1l16.2,37.6H286.8z M275.4,189.1l-4.7,10.9h9.4
			L275.4,189.1z"/>
		<path fill="#1D1D1B" d="M324.4,196.4h8.4v13.3c-3.7,4.2-8.9,6.2-15.5,6.2c-5.5,0-10.2-1.8-13.9-5.5c-3.7-3.7-5.6-8.3-5.6-13.8
			c0-5.6,1.9-10.2,5.7-14c3.8-3.7,8.4-5.6,13.8-5.6s10.1,1.8,14.1,5.3l-4.4,6.3c-1.7-1.5-3.2-2.5-4.7-3c-1.4-0.6-2.9-0.8-4.6-0.8
			c-3.2,0-5.9,1.1-8.1,3.3c-2.2,2.2-3.3,5-3.3,8.6c0,3.5,1,6.4,3.1,8.5c2.1,2.1,4.6,3.2,7.5,3.2c2.9,0,5.3-0.6,7.3-1.7V196.4z"/>
		<path fill="#1D1D1B" d="M367.5,178v7.5h-18.7v7.7h16.8v7.2h-16.8v7.8h19.3v7.4h-27.7V178H367.5z"/>
	</g>
	<path display="inline" fill="#1D1D1B" d="M112.7,72.5"/>
	<g display="inline">
		<path fill="#1D1D1B" d="M218.5,135.8c17.1-7.9,28.9-25.2,28.9-45.3c0-8.9-2.3-17.2-6.4-24.4l-1.5,3.4c3.2,6.3,5,13.5,5,21
			c0,19-11.4,35.5-27.7,42.9L218.5,135.8z M197.5,43.5c12.4,0,23.6,4.8,32,12.6l0.9-3.1c-8.8-7.8-20.3-12.5-33-12.5l0,0
			c-27.5,0-50.1,22.3-50.1,49.9s22.6,49.9,49.6,49.9v-2.9c-26,0-46.7-21.1-46.7-47S171.6,43.5,197.5,43.5"/>
		<g>
			<polyline fill="#1D1D1B" points="173.1,84.6 164.1,75.6 163.5,82.3 191.6,133 187.1,143.6 197.5,143.5 216.6,149.1 			"/>
			<polygon fill="#1D1D1B" points="256.8,38.5 256,34 243.8,42.8 213.1,119.8 209.3,114.6 240.3,41.6 239.9,36.9 230.9,41.5 216,76 
				209.7,54.8 196.4,46 208.8,92.6 205.5,100.3 194.6,57.9 196.4,46 191.8,47.2 187,56.5 197.6,98.6 185,81.3 164.1,75.6 
				177.3,82.5 220.6,147.5 230.7,144.1 235.6,142 228.2,117 			"/>
		</g>
	</g>
	<g display="inline">
		<path fill="#1D1D1B" d="M77.1,43.5c25.9,0,47,21.1,47,47s-21.1,47-47,47s-47-21.1-47-47S51.2,43.5,77.1,43.5 M77.1,40.6
			c-27.5,0-49.9,22.3-49.9,49.9s22.3,49.9,49.9,49.9s49.9-22.3,49.9-49.9S104.6,40.6,77.1,40.6L77.1,40.6z"/>
		<path fill="#1D1D1B" d="M101.6,93c-0.5-0.8-1.7-2.4-3.7-4.3l0,0.1c-1.1-0.6-2.2-1.3-3.3-1.9c-6.9-4-12.8-5.7-18-5.7
			c-19-0.2-26.3,20.5-26.3,20.6l-0.2,0.6l0,0l0.7,0.3c0.1,0,24.6,11.8,41.1-4.9c1.7-1.8,3.4-3.9,4.9-6.3l0.1-0.1
			c2.1,1.8,3.3,3.5,3.8,4.4l0,0c-0.2,0.4-0.3,0.8-0.5,1.3l-1.3,3.5c-3.6,9.8-6.7,22.1-6.7,31.4c0,9.3,0.9,16.5,0.9,16.4h0h0
			c-0.1,0,9.9,0,9.8,0c-2.9-4.4-5.9-13.3-5.9-22.1c0-8.8,2.5-18.2,5.5-27.1c1.6,7,8.2,15.7,14.8,23c7.6,8.4,15.2,15,15.3,15l0.6,0.5
			l0.3-0.7c0,0,4.4-13.1,4.6-25.5c0.1-7-1.2-13.9-5.5-18.1c-5.6-5.4-11.1-6.8-15.2-6.8c-3.3,0-5.7,0.7-6.8,0.9l0.1,0.5l-0.1-0.5
			c-1.6,0.4-3,0.9-4.1,1.6c3-7.4,6-13.4,7.6-16.5v0c0.1-0.2,0.2-0.4,0.3-0.5c1-1.6,2.4-3.4,4.1-4.7c2.4-1.9,11.6,1.2,14.1-5.8
			c1.6-4.6-0.5-16.3-2.2-23.8l0,0c-6.9,3.2-18.1,9.1-20.8,13.3c-3.9,6.2,4.2,11.5,4.2,14.6c0,2.1-0.6,4.4-1.2,6.1
			c-0.1,0.2-0.1,0.4-0.2,0.6c-0.4,0.6-2.3,3.8-4.8,8.7c-0.4-0.6-1-1.6-1.5-2.9c-1-2.1-1.9-5.2-1.9-8.6c0-0.2,0-0.3,0-0.5l0-0.1
			l0-0.1c-2.9-9.1-11.2-12.2-20.4-12.3c-8.1-0.1-17,2-23.8,4.3c-3.4,1.2-6.4,2.4-8.5,3.4c-1,0.5-1.9,1-2.5,1.3
			c-0.6,0.4-1,0.6-1.1,1.3c0,0.3,0.2,0.6,0.4,0.6c0.2,0.1,0.4,0.1,0.6,0.1c0.1,0,0.2,0,0.4,0c0.1,0,0.3,0,0.4,0
			c9.4,0.1,13.9,2.8,18.8,5.5c4.9,2.7,10.2,5.5,20.6,5.6c3.9,0,8.5-0.3,14.1-1c1,0.9,1.7,2.4,2.1,3.7c0.5,1.3,0.6,2.4,0.6,2.4
			l0.1,0.4C104.3,86.8,102.9,89.8,101.6,93L101.6,93z"/>
	</g>
	<path display="inline" fill="#1D1D1B" d="M318.3,43.5c25.9,0,47,21.1,47,47s-21.1,47-47,47c-25.9,0-47-21.1-47-47
		S292.4,43.5,318.3,43.5 M318.3,40.6c-27.5,0-49.9,22.3-49.9,49.9s22.3,49.9,49.9,49.9s49.9-22.3,49.9-49.9S345.8,40.6,318.3,40.6
		L318.3,40.6z"/>
	<g display="inline">
		<g>
			<path fill="#1D1D1B" d="M370.4,90.3c2.4-5.2,2.8-8.8,2.1-13c-1.3,3.3-5.2,9.7-6.5,11L370.4,90.3z"/>
			<path fill="#1D1D1B" d="M336.1,49.3c2.7-5.9,5.5-9,9.6-11.5c-1.9,3.5-4.5,11.6-4.7,13.8L336.1,49.3z"/>
			<path fill="#1D1D1B" d="M362.6,59.8c2.7-5.9,3.2-10.1,2.4-14.8c-1.4,3.7-5.9,11-7.4,12.5L362.6,59.8z"/>
			<path fill="#1D1D1B" d="M317.6,63.3c-3.6,2.2-6.1,4.9-8.5,10.1l4.4,2C313.7,73.6,316,66.4,317.6,63.3z"/>
		</g>
		<g>
			<path fill-rule="evenodd" clip-rule="evenodd" fill="#1D1D1B" d="M341.6,115.1c-3-6.1-3.8-11.7-10-13.6c-7.2-1-11.3,5.5-16.6,9.5
				c-5.5,4.1-10.9,2.7-13.6,8.3c-2.9,7-1.1,13.7,4.3,19.7c7.1,7.9,20.3,10.8,26.5,7.7c9.3-2.5,13.6-11,13.7-20.2
				C346,122.5,343.7,119.4,341.6,115.1z"/>
			<path fill="#1D1D1B" d="M317,97.2c-2.9,9.1-9.5,15.1-14.6,13.7c-5-1.4-7.1-9.4-4.7-18.2c2.5-9.2,9-16,14.5-15
				C317.9,78.8,320,87.7,317,97.2z"/>
			<path fill="#1D1D1B" d="M339.5,74.3c-3,9.5-9.6,15.8-14.7,14.4c-5-1.4-7-9.6-4.5-18.8c2.6-9.5,9.1-16.7,14.6-15.7
				C340.5,55.3,342.6,64.5,339.5,74.3z"/>
			<path fill="#1D1D1B" d="M359.5,81.2c-4.5,8.6-12,13.7-16.5,11c-4.6-2.8-3.9-12.3,1.2-20.9c4.8-8.1,11.9-12,15.8-9.3
				C363.9,64.7,363.7,73.1,359.5,81.2z"/>
			<path fill="#1D1D1B" d="M368.2,108.4c-4.1,9.2-12.8,15.1-18,11.8c-4.6-2.9-3.6-11.7,1-18.7c4.1-6.1,10.1-9.7,14.3-8.6
				C370.1,94.1,371.7,100.6,368.2,108.4z"/>
		</g>
	</g>
</g>
<g id="White" display="none">
	<g>
		<rect display="inline" fill="#FFFFFF" width="400" height="250"/>
	</g>
	<g display="inline">
		<path fill="#FFFFFF" d="M46.7,208.1c4.1,0,7.5-1.6,10.1-4.9l5.4,5.5c-4.3,4.8-9.3,7.2-15.1,7.2s-10.6-1.8-14.3-5.5
			c-3.7-3.7-5.6-8.3-5.6-13.8c0-5.6,1.9-10.2,5.7-14c3.8-3.7,8.5-5.6,14-5.6c6.2,0,11.3,2.3,15.5,7l-5.2,5.9c-2.7-3.3-6-4.9-9.9-4.9
			c-3.2,0-5.9,1-8.1,3.1c-2.2,2.1-3.4,4.8-3.4,8.3s1.1,6.3,3.2,8.4C41.1,207.1,43.7,208.1,46.7,208.1z"/>
		<path fill="#FFFFFF" d="M68.8,215.5V178h8.4v30.1h16v7.5H68.8z"/>
		<path fill="#FFFFFF" d="M126.5,178v7.5h-18.7v7.7h16.8v7.2h-16.8v7.8h19.3v7.4H99.4V178H126.5z"/>
		<path fill="#FFFFFF" d="M148.4,201.9L158,178h9.1l-15.1,37.6h-7.1L129.7,178h9.1L148.4,201.9z"/>
		<path fill="#FFFFFF" d="M198.6,178v7.5h-18.7v7.7h16.8v7.2h-16.8v7.8h19.3v7.4h-27.7V178H198.6z"/>
		<path fill="#FFFFFF" d="M237.2,190.4c0,6-2.4,9.9-7.2,11.7l9.5,13.4h-10.3l-8.3-12h-5.8v12h-8.4V178h14.2c5.8,0,10,1,12.5,3
			C235.9,182.9,237.2,186.1,237.2,190.4z M227.1,194.9c1-0.9,1.6-2.4,1.6-4.4c0-2-0.5-3.4-1.6-4.2c-1.1-0.8-3-1.1-5.6-1.1h-6.3v11.1
			h6.1C224.1,196.3,226,195.8,227.1,194.9z"/>
		<path fill="#FFFFFF" d="M286.8,215.5l-3.5-8.1h-15.8l-3.5,8.1h-8.9l16.2-37.6h8.1l16.2,37.6H286.8z M275.4,189.1l-4.7,10.9h9.4
			L275.4,189.1z"/>
		<path fill="#FFFFFF" d="M324.4,196.4h8.4v13.3c-3.7,4.2-8.9,6.2-15.5,6.2c-5.5,0-10.2-1.8-13.9-5.5c-3.7-3.7-5.6-8.3-5.6-13.8
			c0-5.6,1.9-10.2,5.7-14c3.8-3.7,8.4-5.6,13.8-5.6s10.1,1.8,14.1,5.3l-4.4,6.3c-1.7-1.5-3.2-2.5-4.7-3c-1.4-0.6-2.9-0.8-4.6-0.8
			c-3.2,0-5.9,1.1-8.1,3.3c-2.2,2.2-3.3,5-3.3,8.6c0,3.5,1,6.4,3.1,8.5c2.1,2.1,4.6,3.2,7.5,3.2c2.9,0,5.3-0.6,7.3-1.7V196.4z"/>
		<path fill="#FFFFFF" d="M367.5,178v7.5h-18.7v7.7h16.8v7.2h-16.8v7.8h19.3v7.4h-27.7V178H367.5z"/>
	</g>
	<path display="inline" fill="#FFFFFF" d="M112.7,72.5"/>
	<g display="inline">
		<path fill="#FFFFFF" d="M218.5,135.8c17.1-7.9,28.9-25.2,28.9-45.3c0-8.9-2.3-17.2-6.4-24.4l-1.5,3.4c3.2,6.3,5,13.5,5,21
			c0,19-11.4,35.5-27.7,42.9L218.5,135.8z M197.5,43.5c12.4,0,23.6,4.8,32,12.6l0.9-3.1c-8.8-7.8-20.3-12.5-33-12.5l0,0
			c-27.5,0-49.6,22.3-49.6,49.9s23.1,49.9,50.1,49.9v-2.9c-26,0-47.2-21.1-47.2-47S171.6,43.5,197.5,43.5"/>
		<g>
			<polyline fill="#FFFFFF" points="173.1,84.6 164.1,75.6 163.5,82.3 191.6,133 187.1,143.6 197.5,143.5 216.6,149.1 			"/>
			<polygon fill="#FFFFFF" points="256.8,38.5 256,34 243.8,42.8 213.1,119.8 209.3,114.6 240.3,41.6 239.9,36.9 230.9,41.5 216,76 
				209.7,54.8 196.4,46 208.8,92.6 205.5,100.3 194.6,57.9 196.4,46 191.8,47.2 187,56.5 197.6,98.6 185,81.3 164.1,75.6 
				177.3,82.5 220.6,147.5 230.7,144.1 235.6,142 228.2,117 			"/>
		</g>
	</g>
	<g display="inline">
		<path fill="#FFFFFF" d="M77.1,43.5c25.9,0,47,21.1,47,47s-21.1,47-47,47s-47-21.1-47-47S51.2,43.5,77.1,43.5 M77.1,40.6
			c-27.5,0-49.9,22.3-49.9,49.9s22.3,49.9,49.9,49.9s49.9-22.3,49.9-49.9S104.6,40.6,77.1,40.6L77.1,40.6z"/>
		<path fill="#FFFFFF" d="M101.6,93c-0.5-0.8-1.7-2.4-3.7-4.3l0,0.1c-1.1-0.6-2.2-1.3-3.3-1.9c-6.9-4-12.8-5.7-18-5.7
			c-19-0.2-26.3,20.5-26.3,20.6l-0.2,0.6l0,0l0.7,0.3c0.1,0,24.6,11.8,41.1-4.9c1.7-1.8,3.4-3.9,4.9-6.3l0.1-0.1
			c2.1,1.8,3.3,3.5,3.8,4.4l0,0c-0.2,0.4-0.3,0.8-0.5,1.3l-1.3,3.5c-3.6,9.8-6.7,22.1-6.7,31.4c0,9.3,0.9,16.5,0.9,16.4h0h0
			c-0.1,0,9.9,0,9.8,0c-2.9-4.4-5.9-13.3-5.9-22.1c0-8.8,2.5-18.2,5.5-27.1c1.6,7,8.2,15.7,14.8,23c7.6,8.4,15.2,15,15.3,15l0.6,0.5
			l0.3-0.7c0,0,4.4-13.1,4.6-25.5c0.1-7-1.2-13.9-5.5-18.1c-5.6-5.4-11.1-6.8-15.2-6.8c-3.3,0-5.7,0.7-6.8,0.9l0.1,0.5l-0.1-0.5
			c-1.6,0.4-3,0.9-4.1,1.6c3-7.4,6-13.4,7.6-16.5v0c0.1-0.2,0.2-0.4,0.3-0.5c1-1.6,2.4-3.4,4.1-4.7c2.4-1.9,11.6,1.2,14.1-5.8
			c1.6-4.6-0.5-16.3-2.2-23.8l0,0c-6.9,3.2-18.1,9.1-20.8,13.3c-3.9,6.2,4.2,11.5,4.2,14.6c0,2.1-0.6,4.4-1.2,6.1
			c-0.1,0.2-0.1,0.4-0.2,0.6c-0.4,0.6-2.3,3.8-4.8,8.7c-0.4-0.6-1-1.6-1.5-2.9c-1-2.1-1.9-5.2-1.9-8.6c0-0.2,0-0.3,0-0.5l0-0.1
			l0-0.1c-2.9-9.1-11.2-12.2-20.4-12.3c-8.1-0.1-17,2-23.8,4.3c-3.4,1.2-6.4,2.4-8.5,3.4c-1,0.5-1.9,1-2.5,1.3
			c-0.6,0.4-1,0.6-1.1,1.3c0,0.3,0.2,0.6,0.4,0.6c0.2,0.1,0.4,0.1,0.6,0.1c0.1,0,0.2,0,0.4,0c0.1,0,0.3,0,0.4,0
			c9.4,0.1,13.9,2.8,18.8,5.5c4.9,2.7,10.2,5.5,20.6,5.6c3.9,0,8.5-0.3,14.1-1c1,0.9,1.7,2.4,2.1,3.7c0.5,1.3,0.6,2.4,0.6,2.4
			l0.1,0.4C104.3,86.8,102.9,89.8,101.6,93L101.6,93z"/>
	</g>
	<path display="inline" fill="#FFFFFF" d="M318.3,43.5c25.9,0,47,21.1,47,47s-21.1,47-47,47c-25.9,0-47-21.1-47-47
		S292.4,43.5,318.3,43.5 M318.3,40.6c-27.5,0-49.9,22.3-49.9,49.9s22.3,49.9,49.9,49.9s49.9-22.3,49.9-49.9S345.8,40.6,318.3,40.6
		L318.3,40.6z"/>
	<g display="inline">
		<g>
			<path fill="#FFFFFF" d="M370.4,90.3c2.4-5.2,2.8-8.8,2.1-13c-1.3,3.3-5.2,9.7-6.5,11L370.4,90.3z"/>
			<path fill="#FFFFFF" d="M336.1,49.3c2.7-5.9,5.5-9,9.6-11.5c-1.9,3.5-4.5,11.6-4.7,13.8L336.1,49.3z"/>
			<path fill="#FFFFFF" d="M362.6,59.8c2.7-5.9,3.2-10.1,2.4-14.8c-1.4,3.7-5.9,11-7.4,12.5L362.6,59.8z"/>
			<path fill="#FFFFFF" d="M317.6,63.3c-3.6,2.2-6.1,4.9-8.5,10.1l4.4,2C313.7,73.6,316,66.4,317.6,63.3z"/>
		</g>
		<g>
			<path fill-rule="evenodd" clip-rule="evenodd" fill="#FFFFFF" d="M341.6,115.1c-3-6.1-3.8-11.7-10-13.6c-7.2-1-11.3,5.5-16.6,9.5
				c-5.5,4.1-10.9,2.7-13.6,8.3c-2.9,7-1.1,13.7,4.3,19.7c7.1,7.9,20.3,10.8,26.5,7.7c9.3-2.5,13.6-11,13.7-20.2
				C346,122.5,343.7,119.4,341.6,115.1z"/>
			<path fill="#FFFFFF" d="M317,97.2c-2.9,9.1-9.5,15.1-14.6,13.7c-5-1.4-7.1-9.4-4.7-18.2c2.5-9.2,9-16,14.5-15
				C317.9,78.8,320,87.7,317,97.2z"/>
			<path fill="#FFFFFF" d="M339.5,74.3c-3,9.5-9.6,15.8-14.7,14.4c-5-1.4-7-9.6-4.5-18.8c2.6-9.5,9.1-16.7,14.6-15.7
				C340.5,55.3,342.6,64.5,339.5,74.3z"/>
			<path fill="#FFFFFF" d="M359.5,81.2c-4.5,8.6-12,13.7-16.5,11c-4.6-2.8-3.9-12.3,1.2-20.9c4.8-8.1,11.9-12,15.8-9.3
				C363.9,64.7,363.7,73.1,359.5,81.2z"/>
			<path fill="#FFFFFF" d="M368.2,108.4c-4.1,9.2-12.8,15.1-18,11.8c-4.6-2.9-3.6-11.7,1-18.7c4.1-6.1,10.1-9.7,14.3-8.6
				C370.1,94.1,371.7,100.6,368.2,108.4z"/>
		</g>
	</g>
</g>
</svg>
