<svg xmlns="http://www.w3.org/2000/svg" viewBox="0 0 400 250"><g fill="#403E46"><path d="M46.7 208.1c4.1 0 7.5-1.6 10.1-4.9l5.4 5.5c-4.3 4.8-9.3 7.2-15.1 7.2s-10.6-1.8-14.3-5.5c-3.7-3.7-5.6-8.3-5.6-13.8 0-5.6 1.9-10.2 5.7-14 3.8-3.7 8.5-5.6 14-5.6 6.2 0 11.3 2.3 15.5 7l-5.2 5.9c-2.7-3.3-6-4.9-9.9-4.9-3.2 0-5.9 1-8.1 3.1-2.2 2.1-3.4 4.8-3.4 8.3s1.1 6.3 3.2 8.4c2.1 2.3 4.7 3.3 7.7 3.3zM68.8 215.5V178h8.4v30.1h16v7.5H68.8zM126.5 178v7.5h-18.7v7.7h16.8v7.2h-16.8v7.8h19.3v7.4H99.4V178h27.1zM148.4 201.9L158 178h9.1L152 215.6h-7.1L129.7 178h9.1l9.6 23.9zM198.6 178v7.5h-18.7v7.7h16.8v7.2h-16.8v7.8h19.3v7.4h-27.7V178h27.1zM237.2 190.4c0 6-2.4 9.9-7.2 11.7l9.5 13.4h-10.3l-8.3-12h-5.8v12h-8.4V178h14.2c5.8 0 10 1 12.5 3 2.5 1.9 3.8 5.1 3.8 9.4zm-10.1 4.5c1-.9 1.6-2.4 1.6-4.4 0-2-.5-3.4-1.6-4.2-1.1-.8-3-1.1-5.6-1.1h-6.3v11.1h6.1c2.8 0 4.7-.5 5.8-1.4zM286.8 215.5l-3.5-8.1h-15.8l-3.5 8.1h-8.9l16.2-37.6h8.1l16.2 37.6h-8.8zm-11.4-26.4l-4.7 10.9h9.4l-4.7-10.9zM324.4 196.4h8.4v13.3c-3.7 4.2-8.9 6.2-15.5 6.2-5.5 0-10.2-1.8-13.9-5.5-3.7-3.7-5.6-8.3-5.6-13.8 0-5.6 1.9-10.2 5.7-14 3.8-3.7 8.4-5.6 13.8-5.6s10.1 1.8 14.1 5.3l-4.4 6.3c-1.7-1.5-3.2-2.5-4.7-3-1.4-.6-2.9-.8-4.6-.8-3.2 0-5.9 1.1-8.1 3.3-2.2 2.2-3.3 5-3.3 8.6 0 3.5 1 6.4 3.1 8.5 2.1 2.1 4.6 3.2 7.5 3.2 2.9 0 5.3-.6 7.3-1.7v-10.3zM367.5 178v7.5h-18.7v7.7h16.8v7.2h-16.8v7.8h19.3v7.4h-27.7V178h27.1z"/></g><path fill="#DDDEDE" d="M218.5 135.8c17.1-7.9 28.9-25.2 28.9-45.3 0-8.9-2.3-17.2-6.4-24.4l-1.5 3.4c3.2 6.3 5 13.5 5 21 0 19-11.4 35.5-27.7 42.9l1.7 2.4zm-21-92.3c12.4 0 23.6 4.8 32 12.6l.9-3.1c-8.8-7.8-20.3-12.5-33-12.5-27.5 0-49.6 22.3-49.6 49.9s23.1 49.9 50.1 49.9v-2.9c-26 0-47.2-21.1-47.2-47s20.9-46.9 46.8-46.9"/><path fill="#0389C0" d="M173.1 84.6l-9-9-.6 6.7 28.1 50.7-4.5 10.6 10.4-.1 19.1 5.6"/><path fill="#007EB1" d="M256.8 38.5L256 34l-12.2 8.8-30.7 77-3.8-5.2 31-73-.4-4.7-9 4.6L216 76l-6.3-21.2-13.3-8.8 12.4 46.6-3.3 7.7-10.9-42.4 1.8-11.9-4.6 1.2-4.8 9.3 10.6 42.1L185 81.3l-20.9-5.7 13.2 6.9 43.3 65 10.1-3.4 4.9-2.1-7.4-25z"/><path fill="#DDDEDE" d="M77.1 43.5c25.9 0 47 21.1 47 47s-21.1 47-47 47-47-21.1-47-47 21.1-47 47-47m0-2.9c-27.5 0-49.9 22.3-49.9 49.9s22.3 49.9 49.9 49.9S127 118.1 127 90.5s-22.4-49.9-49.9-49.9z"/><path fill="#667D18" d="M101.6 93c-.5-.8-1.7-2.4-3.7-4.3v.1c-1.1-.6-2.2-1.3-3.3-1.9-6.9-4-12.8-5.7-18-5.7-19-.2-26.3 20.5-26.3 20.6l-.2.6.7.3c.1 0 24.6 11.8 41.1-4.9 1.7-1.8 3.4-3.9 4.9-6.3l.1-.1c2.1 1.8 3.3 3.5 3.8 4.4-.2.4-.3.8-.5 1.3l-1.3 3.5c-3.6 9.8-6.7 22.1-6.7 31.4 0 9.3.9 16.5.9 16.4h9.8C100 144 97 135.1 97 126.3s2.5-18.2 5.5-27.1c1.6 7 8.2 15.7 14.8 23 7.6 8.4 15.2 15 15.3 15l.6.5.3-.7s4.4-13.1 4.6-25.5c.1-7-1.2-13.9-5.5-18.1-5.6-5.4-11.1-6.8-15.2-6.8-3.3 0-5.7.7-6.8.9l.1.5-.1-.5c-1.6.4-3 .9-4.1 1.6 3-7.4 6-13.4 7.6-16.5.1-.2.2-.4.3-.5 1-1.6 2.4-3.4 4.1-4.7 2.4-1.9 11.6 1.2 14.1-5.8 1.6-4.6-.5-16.3-2.2-23.8-6.9 3.2-18.1 9.1-20.8 13.3-3.9 6.2 4.2 11.5 4.2 14.6 0 2.1-.6 4.4-1.2 6.1-.1.2-.1.4-.2.6-.4.6-2.3 3.8-4.8 8.7-.4-.6-1-1.6-1.5-2.9-1-2.1-1.9-5.2-1.9-8.6v-.7c-2.9-9.1-11.2-12.2-20.4-12.3-8.1-.1-17 2-23.8 4.3-3.4 1.2-6.4 2.4-8.5 3.4-1 .5-1.9 1-2.5 1.3-.6.4-1 .6-1.1 1.3 0 .3.2.6.4.6.2.1.4.1.6.1h.8c9.4.1 13.9 2.8 18.8 5.5s10.2 5.5 20.6 5.6c3.9 0 8.5-.3 14.1-1 1 .9 1.7 2.4 2.1 3.7.5 1.3.6 2.4.6 2.4l.1.4c-1.7 2.6-3.1 5.6-4.4 8.8z"/><path fill="#DDDEDE" d="M318.3 43.5c25.9 0 47 21.1 47 47s-21.1 47-47 47-47-21.1-47-47 21.1-47 47-47m0-2.9c-27.5 0-49.9 22.3-49.9 49.9s22.3 49.9 49.9 49.9 49.9-22.3 49.9-49.9-22.4-49.9-49.9-49.9z"/><g fill="#C74917"><path d="M370.4 90.3c2.4-5.2 2.8-8.8 2.1-13-1.3 3.3-5.2 9.7-6.5 11l4.4 2zM336.1 49.3c2.7-5.9 5.5-9 9.6-11.5-1.9 3.5-4.5 11.6-4.7 13.8l-4.9-2.3zM362.6 59.8c2.7-5.9 3.2-10.1 2.4-14.8-1.4 3.7-5.9 11-7.4 12.5l5 2.3zM317.6 63.3c-3.6 2.2-6.1 4.9-8.5 10.1l4.4 2c.2-1.8 2.5-9 4.1-12.1z"/><g><path fill-rule="evenodd" clip-rule="evenodd" d="M341.6 115.1c-3-6.1-3.8-11.7-10-13.6-7.2-1-11.3 5.5-16.6 9.5-5.5 4.1-10.9 2.7-13.6 8.3-2.9 7-1.1 13.7 4.3 19.7 7.1 7.9 20.3 10.8 26.5 7.7 9.3-2.5 13.6-11 13.7-20.2.1-4-2.2-7.1-4.3-11.4z"/><path d="M317 97.2c-2.9 9.1-9.5 15.1-14.6 13.7-5-1.4-7.1-9.4-4.7-18.2 2.5-9.2 9-16 14.5-15 5.7 1.1 7.8 10 4.8 19.5z"/><path d="M339.5 74.3c-3 9.5-9.6 15.8-14.7 14.4-5-1.4-7-9.6-4.5-18.8 2.6-9.5 9.1-16.7 14.6-15.7 5.6 1.1 7.7 10.3 4.6 20.1zM359.5 81.2c-4.5 8.6-12 13.7-16.5 11-4.6-2.8-3.9-12.3 1.2-20.9 4.8-8.1 11.9-12 15.8-9.3 3.9 2.7 3.7 11.1-.5 19.2zM368.2 108.4c-4.1 9.2-12.8 15.1-18 11.8-4.6-2.9-3.6-11.7 1-18.7 4.1-6.1 10.1-9.7 14.3-8.6 4.6 1.2 6.2 7.7 2.7 15.5z"/></g></g></svg>